# xmcd CD database file
#
# Track frame offsets:
#	150
#	30080
#	53424
#	81779
#	107335
#	132421
#	157683
#	184213
#
# Disc length: 2840 seconds
#
# Revision: 1
# Processed by: cddbd v1.5.2PL0 Copyright (c) Steve Scherf et al.
# Submitted via: CDex 1.51
#
DISCID=4d0b1608
DTITLE=Grupo Niche - Querer Es Poder
DYEAR=1981
DGENRE=Salsa
TTITLE0=Homenaje De Corazón
TTITLE1=Mi Mamá Me Ha Dicho
TTITLE2=Buenaventura Y Caney
TTITLE3=Digo Yo
TTITLE4=Enamorado De Ti
TTITLE5=Consejo De Madre
TTITLE6=Nicolasa Santos
TTITLE7=Corazón Sin Corazón
EXTD=YEAR: 1981
EXTT0=
EXTT1=
EXTT2=
EXTT3=
EXTT4=
EXTT5=
EXTT6=
EXTT7=
PLAYORDER=
